<?xml version="1.0" encoding="UTF-8"?>
<svg version="1.1" xmlns="http://www.w3.org/2000/svg" width="513" height="477">
<path d="M0 0 C0.85980469 0.69738281 1.71960938 1.39476563 2.60546875 2.11328125 C24.82015906 20.95271629 36.19918298 49.64210519 39.75 78 C39.86345061 79.66488774 39.94224246 81.33225113 40 83 C40.07734375 84.91232422 40.07734375 84.91232422 40.15625 86.86328125 C41.12197555 122.35569052 29.46509477 155.23637068 5.45849609 181.5 C0.82298169 186.26742559 -4.47724447 190.31816298 -10 194 C-2.49681286 194.07700979 5.00626985 194.1289958 12.50976562 194.16479492 C15.05440072 194.17974256 17.59901068 194.20010804 20.14355469 194.22631836 C54.96419237 194.57562059 88.33908898 188.75557055 116 166 C116.51852539 165.57638184 117.03705078 165.15276367 117.57128906 164.71630859 C130.19214606 154.22260667 139.08462842 141.47199301 147.32202148 127.37158203 C151.60883266 120.15950047 156.69832546 112.71400899 165 110 C169.57810783 109.24637302 173.78951059 109.01390807 178.1015625 110.9375 C185.78967296 116.7589499 190.31470311 126.78427052 195 135 C195.36625488 135.62406738 195.73250977 136.24813477 196.10986328 136.89111328 C206.80152932 155.12381065 213.966554 175.53766208 219 196 C219.16580566 196.67144043 219.33161133 197.34288086 219.50244141 198.03466797 C231.05716242 246.30138122 221.0030226 296.6705405 196 339 C181.57866595 362.04731301 162.05985247 383.14005583 140 399 C139.10112061 399.65742187 139.10112061 399.65742187 138.18408203 400.328125 C98.42713646 429.26494499 51.66483826 445.51053775 3 451 C2.24275635 451.0942627 1.4855127 451.18852539 0.70532227 451.28564453 C-9.17638769 452.3720593 -19.13380934 452.24386392 -29.0625 452.25 C-30.53255997 452.25101212 -30.53255997 452.25101212 -32.03231812 452.25204468 C-47.54161733 452.23510639 -62.68880302 451.69841419 -78 449 C-78.97582031 448.82839355 -79.95164063 448.65678711 -80.95703125 448.47998047 C-128.62891687 439.74065543 -172.90778595 416.12549834 -201.32421875 375.99609375 C-205.69612868 369.58760896 -209.46437149 362.89902968 -213 356 C-213.35046387 355.32356445 -213.70092773 354.64712891 -214.06201172 353.95019531 C-235.98646628 311.15252791 -238.4578455 260.51101022 -224.34863281 214.89404297 C-216.57606974 190.82698107 -202.57973079 169.11193106 -183 153 C-192.69175889 148.72703241 -202.41579143 144.80233106 -212.43969727 141.36865234 C-225.11257553 137.01824855 -236.68487514 132.18659568 -248 125 C-248.67337402 124.57686523 -249.34674805 124.15373047 -250.04052734 123.71777344 C-258.0907559 118.61897322 -265.68916437 113.12132124 -273 107 C-273.63292969 106.51273438 -274.26585937 106.02546875 -274.91796875 105.5234375 C-280.97470097 100.73688091 -285.96972546 94.12329939 -289 87 C-289.42876251 82.56945406 -289.39896955 79.99742387 -287.75 75.875 C-276.86562153 64.49587705 -259.08160957 63.87554216 -244.375 62.25 C-230.04796086 60.58962166 -216.43098509 57.47739384 -202.5324707 53.57910156 C-200 53 -200 53 -196 53 C-195.87625 52.44054687 -195.7525 51.88109375 -195.625 51.3046875 C-189.71933451 28.34641291 -170.54579169 9.25636114 -151 -3 C-149.94554687 -3.67675781 -148.89109375 -4.35351562 -147.8046875 -5.05078125 C-103.96031755 -31.74091189 -40.56193035 -34.10489368 0 0 Z " fill="#F8C34F" transform="translate(289,25)"/>
<path d="M0 0 C0.85980469 0.69738281 1.71960938 1.39476563 2.60546875 2.11328125 C24.82015906 20.95271629 36.19918298 49.64210519 39.75 78 C39.86345061 79.66488774 39.94224246 81.33225113 40 83 C40.07734375 84.91232422 40.07734375 84.91232422 40.15625 86.86328125 C41.12197555 122.35569052 29.46509477 155.23637068 5.45849609 181.5 C0.82298169 186.26742559 -4.47724447 190.31816298 -10 194 C-2.49681286 194.07700979 5.00626985 194.1289958 12.50976562 194.16479492 C15.05440072 194.17974256 17.59901068 194.20010804 20.14355469 194.22631836 C54.96419237 194.57562059 88.33908898 188.75557055 116 166 C116.51852539 165.57638184 117.03705078 165.15276367 117.57128906 164.71630859 C130.19214606 154.22260667 139.08462842 141.47199301 147.32202148 127.37158203 C151.60883266 120.15950047 156.69832546 112.71400899 165 110 C169.57810783 109.24637302 173.78951059 109.01390807 178.1015625 110.9375 C185.78967296 116.7589499 190.31470311 126.78427052 195 135 C195.36625488 135.62406738 195.73250977 136.24813477 196.10986328 136.89111328 C206.80152932 155.12381065 213.966554 175.53766208 219 196 C219.16580566 196.67144043 219.33161133 197.34288086 219.50244141 198.03466797 C231.05716242 246.30138122 221.0030226 296.6705405 196 339 C181.57866595 362.04731301 162.05985247 383.14005583 140 399 C139.10112061 399.65742187 139.10112061 399.65742187 138.18408203 400.328125 C98.42713646 429.26494499 51.66483826 445.51053775 3 451 C2.24275635 451.0942627 1.4855127 451.18852539 0.70532227 451.28564453 C-9.17638769 452.3720593 -19.13380934 452.24386392 -29.0625 452.25 C-30.53255997 452.25101212 -30.53255997 452.25101212 -32.03231812 452.25204468 C-47.54161733 452.23510639 -62.68880302 451.69841419 -78 449 C-78.97582031 448.82839355 -79.95164063 448.65678711 -80.95703125 448.47998047 C-128.62891687 439.74065543 -172.90778595 416.12549834 -201.32421875 375.99609375 C-205.69612868 369.58760896 -209.46437149 362.89902968 -213 356 C-213.35046387 355.32356445 -213.70092773 354.64712891 -214.06201172 353.95019531 C-235.98646628 311.15252791 -238.4578455 260.51101022 -224.34863281 214.89404297 C-216.57606974 190.82698107 -202.57973079 169.11193106 -183 153 C-192.69175889 148.72703241 -202.41579143 144.80233106 -212.43969727 141.36865234 C-225.11257553 137.01824855 -236.68487514 132.18659568 -248 125 C-248.67337402 124.57686523 -249.34674805 124.15373047 -250.04052734 123.71777344 C-258.0907559 118.61897322 -265.68916437 113.12132124 -273 107 C-273.63292969 106.51273438 -274.26585937 106.02546875 -274.91796875 105.5234375 C-280.97470097 100.73688091 -285.96972546 94.12329939 -289 87 C-289.42876251 82.56945406 -289.39896955 79.99742387 -287.75 75.875 C-276.86562153 64.49587705 -259.08160957 63.87554216 -244.375 62.25 C-230.04796086 60.58962166 -216.43098509 57.47739384 -202.5324707 53.57910156 C-200 53 -200 53 -196 53 C-195.87625 52.44054687 -195.7525 51.88109375 -195.625 51.3046875 C-189.71933451 28.34641291 -170.54579169 9.25636114 -151 -3 C-149.94554687 -3.67675781 -148.89109375 -4.35351562 -147.8046875 -5.05078125 C-103.96031755 -31.74091189 -40.56193035 -34.10489368 0 0 Z M-165.28125 31.5 C-180.18469151 49.38412981 -184.70613327 68.1890747 -183 91 C-179.50887396 114.62328621 -163.57838727 136.65199441 -147 153 C-148.54107422 153.61875 -148.54107422 153.61875 -150.11328125 154.25 C-158.94565277 157.891135 -166.58979633 161.85551435 -174 168 C-174.85078125 168.68835938 -175.7015625 169.37671875 -176.578125 170.0859375 C-197.89825218 188.20150569 -209.4757774 216.97177642 -214 244 C-214.11569336 244.68980957 -214.23138672 245.37961914 -214.35058594 246.09033203 C-220.83288576 286.85957381 -211.43628426 331.71488993 -187.52734375 365.58984375 C-175.80694352 381.520846 -161.67455232 395.34245473 -145 406 C-144.36852051 406.40750488 -143.73704102 406.81500977 -143.08642578 407.23486328 C-113.73830296 425.9620352 -77.70917024 435.02532369 -43.0234375 435.203125 C-42.10325333 435.21009399 -41.18306915 435.21706299 -40.23500061 435.22424316 C-37.28161999 435.24153905 -34.32842916 435.24796297 -31.375 435.25 C-30.36656036 435.25100708 -29.35812073 435.25201416 -28.31912231 435.25305176 C-13.31980494 435.24290912 1.21587935 434.73801451 16 432 C17.28487305 431.77521973 17.28487305 431.77521973 18.59570312 431.54589844 C24.4339998 430.51599666 30.22012146 429.31687374 36 428 C36.74958984 427.83306641 37.49917969 427.66613281 38.27148438 427.49414062 C95.4077316 414.51541084 148.70229752 380.48579008 180.58984375 330.90625 C205.09696361 291.75812792 212.94642421 244.98095788 202.67578125 199.9296875 C198.44773044 182.57339703 192.3206377 166.76995927 184 151 C183.47277344 149.989375 182.94554687 148.97875 182.40234375 147.9375 C180.97822388 145.2639523 179.50919434 142.62639015 178 140 C177.11634766 138.45699219 177.11634766 138.45699219 176.21484375 136.8828125 C175.60769531 135.86960938 175.00054687 134.85640625 174.375 133.8125 C173.82585937 132.89082031 173.27671875 131.96914062 172.7109375 131.01953125 C172.14632813 130.35308594 171.58171875 129.68664062 171 129 C169.68 129 168.36 129 167 129 C165.37170751 131.06903332 164.07341431 132.99686376 162.75 135.25 C161.95392331 136.54346042 161.15703407 137.83642106 160.359375 139.12890625 C159.96298828 139.78133301 159.56660156 140.43375977 159.15820312 141.10595703 C138.70854695 174.54786947 109.85552971 197.21068023 71.56787109 206.59619141 C49.98003566 211.67744476 28.51418311 212.30013308 6.43579102 211.80810547 C-17.16098831 211.31975038 -37.4813406 214.98020772 -57.90625 227.23046875 C-60.57913362 228.75927718 -63.1379042 229.89642094 -66 231 C-65.79318604 230.19369141 -65.58637207 229.38738281 -65.37329102 228.55664062 C-64.59970009 225.53092472 -63.83052397 222.50412864 -63.06420898 219.4765625 C-62.57153812 217.5356071 -62.07390082 215.59591449 -61.57617188 213.65625 C-60.00552839 207.43844487 -58.57306532 201.39250333 -58 195 C-56.9275 194.9175 -55.855 194.835 -54.75 194.75 C-33.42506226 191.98149931 -12.71195311 177.99711746 0.33691406 161.28808594 C18.76104516 136.35653547 26.49254519 105.70468989 22.17749023 74.94726562 C18.11100618 49.77042522 6.31145045 25.86767239 -14.44140625 10.3671875 C-22.78410618 4.41378918 -31.33478284 0.3248347 -41 -3 C-41.87011719 -3.31582031 -42.74023438 -3.63164062 -43.63671875 -3.95703125 C-85.75087446 -18.08789672 -136.25861475 -0.30562767 -165.28125 31.5 Z " fill="#010100" transform="translate(289,25)"/>
<path d="M0 0 C1.80478187 2.18884445 2.89766931 3.83207217 4.125 6.3125 C4.62519653 7.25766479 4.62519653 7.25766479 5.13549805 8.22192383 C11.8021778 21.05362898 16.5946993 33.71772126 16.4375 48.3125 C16.42920166 49.31724365 16.42090332 50.3219873 16.41235352 51.35717773 C16.01254053 69.03574129 8.84694423 84.9305756 -3 98 C-3.67675781 98.75796875 -4.35351562 99.5159375 -5.05078125 100.296875 C-22.81160093 119.12918837 -49.05760558 129.16011183 -74 134 C-74.90983643 134.17877686 -75.81967285 134.35755371 -76.75708008 134.54174805 C-83.94266427 135.85593432 -90.88842726 136.35262999 -98.1875 136.3125 C-99.82477051 136.30404053 -99.82477051 136.30404053 -101.49511719 136.29541016 C-110.62590248 136.15951135 -119.14758213 135.19225422 -128 133 C-128.80856445 132.80664062 -129.61712891 132.61328125 -130.45019531 132.4140625 C-148.02824219 128.11735394 -164.97812526 121.73397595 -179 110 C-179.87011719 109.29101562 -180.74023438 108.58203125 -181.63671875 107.8515625 C-190.87776659 99.97802398 -198.79764896 90.19911978 -200.4140625 77.83203125 C-200.85080773 68.02825026 -198.10567035 61.16221666 -191.625 53.875 C-182.2055914 45.1284063 -170.23482304 40.99931342 -158 38 C-156.99839844 37.6803125 -155.99679688 37.360625 -154.96484375 37.03125 C-149.11596278 35.36856729 -143.08301959 34.63177654 -137.0625 33.875 C-136.35144104 33.78462463 -135.64038208 33.69424927 -134.90777588 33.60113525 C-115.33517976 31.23157798 -95.57483081 31.71253498 -75.89628506 31.94738388 C-73.80833189 31.97180833 -71.72036923 31.99263994 -69.63237 32.01269531 C-67.04916558 32.03992328 -64.46603678 32.07661407 -61.88313293 32.12451172 C-47.42187771 32.28400376 -34.44746238 28.75285266 -23.25 19.2421875 C-19.55089617 15.55592778 -16.79323773 11.38937357 -14 7 C-7.82731056 -2.06203343 -7.82731056 -2.06203343 0 0 Z " fill="#DE4F1D" transform="translate(389,265)"/>
<path d="M0 0 C1.80478187 2.18884445 2.89766931 3.83207217 4.125 6.3125 C4.62519653 7.25766479 4.62519653 7.25766479 5.13549805 8.22192383 C11.8021778 21.05362898 16.5946993 33.71772126 16.4375 48.3125 C16.42920166 49.31724365 16.42090332 50.3219873 16.41235352 51.35717773 C16.01254053 69.03574129 8.84694423 84.9305756 -3 98 C-3.67675781 98.75796875 -4.35351562 99.5159375 -5.05078125 100.296875 C-22.81160093 119.12918837 -49.05760558 129.16011183 -74 134 C-74.90983643 134.17877686 -75.81967285 134.35755371 -76.75708008 134.54174805 C-83.94266427 135.85593432 -90.88842726 136.35262999 -98.1875 136.3125 C-99.82477051 136.30404053 -99.82477051 136.30404053 -101.49511719 136.29541016 C-110.62590248 136.15951135 -119.14758213 135.19225422 -128 133 C-128.80856445 132.80664062 -129.61712891 132.61328125 -130.45019531 132.4140625 C-148.02824219 128.11735394 -164.97812526 121.73397595 -179 110 C-179.87011719 109.29101562 -180.74023438 108.58203125 -181.63671875 107.8515625 C-190.87776659 99.97802398 -198.79764896 90.19911978 -200.4140625 77.83203125 C-200.85080773 68.02825026 -198.10567035 61.16221666 -191.625 53.875 C-182.2055914 45.1284063 -170.23482304 40.99931342 -158 38 C-156.99839844 37.6803125 -155.99679688 37.360625 -154.96484375 37.03125 C-149.11596278 35.36856729 -143.08301959 34.63177654 -137.0625 33.875 C-136.35144104 33.78462463 -135.64038208 33.69424927 -134.90777588 33.60113525 C-115.33517976 31.23157798 -95.57483081 31.71253498 -75.89628506 31.94738388 C-73.80833189 31.97180833 -71.72036923 31.99263994 -69.63237 32.01269531 C-67.04916558 32.03992328 -64.46603678 32.07661407 -61.88313293 32.12451172 C-47.42187771 32.28400376 -34.44746238 28.75285266 -23.25 19.2421875 C-19.55089617 15.55592778 -16.79323773 11.38937357 -14 7 C-7.82731056 -2.06203343 -7.82731056 -2.06203343 0 0 Z M-6 17 C-7.34367639 18.55467281 -7.34367639 18.55467281 -8.6875 20.5625 C-19.62874961 35.46568891 -34.51576761 41.64316551 -52.43704224 44.57933044 C-58.35514598 45.27806622 -64.26147831 45.18290781 -70.20912743 45.08919907 C-72.54832371 45.05365649 -74.88723253 45.03357966 -77.22663879 45.0173645 C-83.87036304 44.96916619 -90.51370355 44.8987663 -97.15698242 44.80810547 C-141.9330684 43.31168643 -141.9330684 43.31168643 -181.40234375 61.3671875 C-185.58014247 65.63691823 -187.73973464 68.52747909 -188.375 74.5625 C-188.24470593 82.45253008 -183.35003492 89.42343707 -178.11328125 95.0078125 C-155.70529411 116.13179298 -124.18165938 125.25517996 -93.859375 124.4140625 C-63.40863891 122.77281944 -32.44130428 111.02773312 -11 89 C-1.76194481 77.74505947 4.60279697 64.6210188 4.5 49.9375 C4.49718018 49.02863037 4.49436035 48.11976074 4.49145508 47.18334961 C4.23289583 36.21909175 1.05955216 26.71849462 -4 17 C-4.66 17 -5.32 17 -6 17 Z " fill="#040301" transform="translate(389,265)"/>
<path d="M0 0 C-0.03480469 0.95777344 -0.06960937 1.91554688 -0.10546875 2.90234375 C-0.61311369 22.65777397 4.7670659 38.73340149 11.86328125 57 C13.36543651 60.964451 14.70058961 64.96498879 16 69 C10.15797719 67.10370339 4.40193221 65.06330387 -1.3125 62.8125 C-2.07812256 62.51134277 -2.84374512 62.21018555 -3.63256836 61.89990234 C-5.25733017 61.26011849 -6.88175478 60.61947771 -8.50585938 59.97802734 C-11.00386723 58.99848354 -13.50884465 58.0388734 -16.015625 57.08203125 C-37.60173553 48.76473489 -60.78707769 38.28961995 -73.2578125 17.69140625 C-74 16 -74 16 -74 13 C-69.50331629 10.84123352 -65.26701041 10.47879893 -60.375 10.0625 C-44.29276024 8.50237475 -28.72832043 5.63967455 -12.98632812 1.98144531 C-11.3244043 1.59811035 -11.3244043 1.59811035 -9.62890625 1.20703125 C-8.1449939 0.85862183 -8.1449939 0.85862183 -6.63110352 0.50317383 C-4 0 -4 0 0 0 Z " fill="#DD4F1D" transform="translate(91,92)"/>
<path d="M0 0 C5.60189251 3.04526555 8.99027345 7.3555469 11.8125 13 C11.96227039 15.24655587 12.03400174 17.49863768 12.0625 19.75 C12.08828125 20.96171875 12.1140625 22.1734375 12.140625 23.421875 C11.45195054 30.93170606 7.27884237 35.05886102 1.75 39.75 C-3.4712756 43.1185649 -10.22375748 42.44027629 -16.1875 42 C-22.35186584 39.8704918 -26.60957774 35.36688339 -30.1875 30 C-32.24106255 23.83931234 -32.47778154 16.34711412 -30.12890625 10.25390625 C-23.47769117 -0.43490281 -11.73891186 -5.28428359 0 0 Z " fill="#020200" transform="translate(205.1875,69)"/>
</svg>
